<?xml version="1.0" encoding="UTF-8" standalone="no"?>
<svg
   xmlns:dc="http://purl.org/dc/elements/1.1/"
   xmlns:cc="http://creativecommons.org/ns#"
   xmlns:rdf="http://www.w3.org/1999/02/22-rdf-syntax-ns#"
   xmlns:svg="http://www.w3.org/2000/svg"
   xmlns="http://www.w3.org/2000/svg"
   xmlns:xlink="http://www.w3.org/1999/xlink"
   xmlns:sodipodi="http://sodipodi.sourceforge.net/DTD/sodipodi-0.dtd"
   xmlns:inkscape="http://www.inkscape.org/namespaces/inkscape"
   version="1.1"
   id="Layer_1"
   x="0px"
   y="0px"
   width="604"
   height="245"
   viewBox="0 0 604.00001 245.00001"
   enable-background="new 0 0 581.102 581.102"
   xml:space="preserve">
<polyline
   style="fill:#001722"
   id="polyline274"
   points="16.538,360.575 150.087,360.575 150.087,400.076 38.922,400.076    16.538,414.75 24.392,400.075 16.538,400.076 16.538,360.575  "
   clip-path="url(#SVGID_41_)"
   transform="matrix(4.5226848,0,0,4.5226848,-74.796162,-1630.7654)" /><path
   style="fill:#ffffff;fill-rule:evenodd"
   inkscape:connector-curvature="0"
   clip-rule="evenodd"
   d="M 116.55411,49.470798 H 63.371859 V 61.971499 H 116.55411 V 49.470798 z M 81.272645,124.27148 H 98.540256 V 65.051447 H 81.272645 v 59.220033 z"
   id="path276" /><path
   style="fill:#ffffff;fill-rule:evenodd"
   inkscape:connector-curvature="0"
   clip-rule="evenodd"
   d="M 143.7671,49.470798 H 126.49949 V 124.26696 H 143.7671 V 49.470798 z m 17.26309,29.66429 h -14.19671 v 12.505223 h 14.19671 v 32.631169 h 17.27213 V 49.470798 h -17.27213 v 29.66429 z"
   id="path278" /><path
   style="fill:#ffffff;fill-rule:evenodd"
   inkscape:connector-curvature="0"
   clip-rule="evenodd"
   d="m 210.31389,91.531767 h 21.18878 V 79.031066 h -21.18878 v 12.500701 z m 0,-29.564791 h 22.45965 V 49.466275 h -22.45965 v 12.500701 z m 22.45965,49.374154 h -22.45965 v 12.92131 h 22.45965 V 111.34113 z M 207.76762,49.470798 h -17.37164 v 74.796162 h 17.37164 V 49.470798 z"
   id="path280" /><path
   style="fill:#ffffff;fill-rule:evenodd"
   inkscape:connector-curvature="0"
   clip-rule="evenodd"
   d="m 314.88741,49.470798 -9.95443,47.569599 6.67096,27.231083 20.44705,-74.800682 h -17.16358 m -24.47225,0 h -17.16359 l 20.65962,74.800682 H 308.1079 L 290.41516,49.470798 z"
   id="path282" /><path
   style="fill:#ffffff;fill-rule:evenodd"
   inkscape:connector-curvature="0"
   clip-rule="evenodd"
   d="m 339.10186,68.84598 v 34.14627 c 0,14.70777 8.36697,22.22447 24.89738,22.76267 v -12.08461 c -4.87545,-0.42061 -7.3177,-3.06638 -7.3177,-8.03229 V 68.208281 c 0,-4.861886 2.44225,-7.507657 7.3177,-8.027765 V 47.99188 c -16.62991,0.533677 -24.89738,7.525748 -24.89738,20.8541 m 35.48951,-0.642221 V 105.6335 c 0,4.97043 -2.54627,7.7157 -7.62977,8.03229 v 12.08461 c 16.85152,-0.42966 25.32703,-7.84234 25.32703,-22.43704 V 69.149 c 0,-14.061027 -8.47551,-21.170688 -25.32703,-21.27471 v 12.29718 c 5.0835,0.312066 7.62977,3.066381 7.62977,8.032289 z"
   id="path284" /><rect
   style="fill:#ffffff"
   x="403.89386"
   y="49.475353"
   width="17.692743"
   height="74.796165"
   id="rect286" /><path
   style="fill:#ffffff;fill-rule:evenodd"
   inkscape:connector-curvature="0"
   clip-rule="evenodd"
   d="m 461.14199,47.878813 v 12.29718 c 5.08802,0.307543 7.62524,2.858337 7.62524,7.498611 v 7.937312 h 17.69727 v -6.978502 c 0,-13.649463 -8.26295,-20.646057 -25.32251,-20.754601 m 0,65.791497 v 12.08461 c 16.847,-0.42965 25.32251,-7.63429 25.32251,-21.59582 v -7.932786 h -17.69727 v 10.261976 c 0,4.44127 -2.53722,6.86543 -7.62524,7.18202 z M 433.27773,68.316826 v 35.521164 c 0,13.97058 8.05037,21.27471 24.36822,21.91693 v -12.08461 c -4.55434,-0.63318 -6.7795,-2.95331 -6.7795,-7.18655 V 67.674604 c 0,-4.332732 2.22516,-6.87448 6.7795,-7.403635 V 47.982835 c -16.31785,0.746243 -24.36822,7.534793 -24.36822,20.333991 z"
   id="path288" /><path
   style="fill:#ffffff;fill-rule:evenodd"
   inkscape:connector-curvature="0"
   clip-rule="evenodd"
   d="m 517.6258,91.531767 h 21.1933 V 79.031066 h -21.1933 v 12.500701 z m 0,-29.564791 h 22.46417 V 49.466275 H 517.6258 v 12.500701 z m 22.45965,49.374154 h -22.46418 v 12.92131 h 22.46418 v -12.92131 z m -25.0014,-61.870332 h -17.37616 v 74.796162 h 17.37616 V 49.470798 z"
   id="path290" />
</svg>